ffmpeg started on 2025-05-12 at 17:18:07
Report written to "D:\Convert\FFMetrics\reports\psnr_report-6.txt"
Log level: 32
Command line:
ffmpeg -hide_banner -nostdin -i "G:\\\xc0\xed\xe8\xec\xe5\\\xce\xed\xe3\xee\xe8\xed\xe3\xe8\\!_35_\xcb\xe5\xf2\xee_2024\\DreamCast\\\xce\xef\xe5\xf0\xe0\xf6\xe8\xff - \xd1\xe5\xec\xe5\xe9\xea\xe0 \xa8\xe4\xe7\xe0\xea\xf3\xf0\xe0\\[DC] Yozakura-san Chi no Daisakusen - 10_Telegram_HEVC.mkv" -i "G:\\\xc0\xed\xe8\xec\xe5\\\xce\xed\xe3\xee\xe8\xed\xe3\xe8\\!_35_\xcb\xe5\xf2\xee_2024\\DreamCast\\\xce\xef\xe5\xf0\xe0\xf6\xe8\xff - \xd1\xe5\xec\xe5\xe9\xea\xe0 \xa8\xe4\xe7\xe0\xea\xf3\xf0\xe0\\[DC] Yozakura-san Chi no Daisakusen - 10_Telegram.mp4" -lavfi "[0:v]settb=AVTB,setpts=PTS-STARTPTS,format=pix_fmts=yuv420p10,fps=24000/1001,scale=1920:1080:flags=bicubic[main];[1:v]settb=AVTB,setpts=PTS-STARTPTS,format=pix_fmts=yuv420p,fps=24000/1001,scale=1920:1080:flags=bicubic[ref];[main][ref]psnr=eof_action=endall:stats_file='D\\:/Convert/FFMetrics/logs/psnr_logfile-6.txt'" -f null -
Input #0, matroska,webm, from 'G:\Аниме\Онгоинги\!_35_Лето_2024\DreamCast\Операция - Семейка Ёдзакура\[DC] Yozakura-san Chi no Daisakusen - 10_Telegram_HEVC.mkv':
  Metadata:
    COMPATIBLE_BRANDS: isomiso2avc1mp41
    MAJOR_BRAND     : isom
    MINOR_VERSION   : 512
    ENCODER         : Lavf61.7.100
  Duration: 00:23:53.64, start: -0.021000, bitrate: 1395 kb/s
  Stream #0:0: Video: hevc (Main 10), yuv420p10le(tv, bt709, progressive), 1920x1080 [SAR 1:1 DAR 16:9], 23.98 fps, 23.98 tbr, 1k tbn (default)
      Metadata:
        HANDLER_NAME    : VideoHandler
        VENDOR_ID       : [0][0][0][0]
        ENCODER         : Lavc61.19.100 libx265
        BPS             : 1197854
        DURATION        : 00:23:53.556708333
        NUMBER_OF_FRAMES: 34371
        NUMBER_OF_BYTES : 214648942
        _STATISTICS_WRITING_APP: mkvpropedit v66.0.0 ('Josie') 64-bit
        _STATISTICS_WRITING_DATE_UTC: 2025-05-08 14:18:37
        _STATISTICS_TAGS: BPS DURATION NUMBER_OF_FRAMES NUMBER_OF_BYTES
  Stream #0:1: Audio: aac (LC), 48000 Hz, stereo, fltp (default)
      Metadata:
        HANDLER_NAME    : SoundHandler
        VENDOR_ID       : [0][0][0][0]
        ENCODER         : Lavc61.19.100 aac
        BPS             : 193328
        DURATION        : 00:23:53.642000000
        NUMBER_OF_FRAMES: 67203
        NUMBER_OF_BYTES : 34645532
        _STATISTICS_WRITING_APP: mkvpropedit v66.0.0 ('Josie') 64-bit
        _STATISTICS_WRITING_DATE_UTC: 2025-05-08 14:18:37
        _STATISTICS_TAGS: BPS DURATION NUMBER_OF_FRAMES NUMBER_OF_BYTES
Input #1, mov,mp4,m4a,3gp,3g2,mj2, from 'G:\Аниме\Онгоинги\!_35_Лето_2024\DreamCast\Операция - Семейка Ёдзакура\[DC] Yozakura-san Chi no Daisakusen - 10_Telegram.mp4':
  Metadata:
    major_brand     : isom
    minor_version   : 512
    compatible_brands: isomiso2avc1mp41
    encoder         : Lavf60.16.100
  Duration: 00:23:53.62, start: 0.000000, bitrate: 3547 kb/s
  Stream #1:0[0x1](und): Video: h264 (High) (avc1 / 0x31637661), yuv420p(tv, bt709, progressive), 1920x1080 [SAR 1:1 DAR 16:9], 3399 kb/s, 23.98 fps, 23.98 tbr, 24k tbn (default)
      Metadata:
        handler_name    : VideoHandler
        vendor_id       : [0][0][0][0]
        encoder         : Lavc60.31.102 h264_qsv
  Stream #1:1[0x2](und): Audio: aac (HE-AACv2) (mp4a / 0x6134706D), 48000 Hz, stereo, fltp, 144 kb/s (default)
      Metadata:
        handler_name    : SoundHandler
        vendor_id       : [0][0][0][0]
Stream mapping:
  Stream #0:0 (hevc) -> settb:default
  Stream #1:0 (h264) -> settb:default
  psnr:default -> Stream #0:0 (wrapped_avframe)
  Stream #0:1 -> #0:1 (aac (native) -> pcm_s16le (native))
Output #0, null, to 'pipe:':
  Metadata:
    COMPATIBLE_BRANDS: isomiso2avc1mp41
    MAJOR_BRAND     : isom
    MINOR_VERSION   : 512
    encoder         : Lavf61.7.100
  Stream #0:0: Video: wrapped_avframe, yuv420p10le(tv, bt709, progressive), 1920x1080 [SAR 1:1 DAR 16:9], q=2-31, 200 kb/s, 23.98 fps, 23.98 tbn
      Metadata:
        encoder         : Lavc61.19.100 wrapped_avframe
  Stream #0:1: Audio: pcm_s16le, 48000 Hz, stereo, s16, 1536 kb/s (default)
      Metadata:
        HANDLER_NAME    : SoundHandler
        VENDOR_ID       : [0][0][0][0]
        _STATISTICS_TAGS: BPS DURATION NUMBER_OF_FRAMES NUMBER_OF_BYTES
        BPS             : 193328
        DURATION        : 00:23:53.642000000
        NUMBER_OF_FRAMES: 67203
        NUMBER_OF_BYTES : 34645532
        _STATISTICS_WRITING_APP: mkvpropedit v66.0.0 ('Josie') 64-bit
        _STATISTICS_WRITING_DATE_UTC: 2025-05-08 14:18:37
        encoder         : Lavc61.19.100 pcm_s16le
frame=  176 fps=0.0 q=-0.0 size=N/A time=00:00:07.34 bitrate=N/A speed=14.2x    frame=  428 fps=417 q=-0.0 size=N/A time=00:00:17.85 bitrate=N/A speed=17.4x    frame=  655 fps=423 q=-0.0 size=N/A time=00:00:27.31 bitrate=N/A speed=17.6x    frame=  906 fps=441 q=-0.0 size=N/A time=00:00:37.78 bitrate=N/A speed=18.4x    frame= 1180 fps=458 q=-0.0 size=N/A time=00:00:49.21 bitrate=N/A speed=19.1x    frame= 1440 fps=467 q=-0.0 size=N/A time=00:01:00.06 bitrate=N/A speed=19.5x    frame= 1713 fps=475 q=-0.0 size=N/A time=00:01:11.44 bitrate=N/A speed=19.8x    frame= 1964 fps=476 q=-0.0 size=N/A time=00:01:21.91 bitrate=N/A speed=19.9x    frame= 2202 fps=476 q=-0.0 size=N/A time=00:01:31.84 bitrate=N/A speed=19.8x    frame= 2465 fps=478 q=-0.0 size=N/A time=00:01:42.81 bitrate=N/A speed=19.9x    frame= 2696 fps=476 q=-0.0 size=N/A time=00:01:52.44 bitrate=N/A speed=19.9x    frame= 2856 fps=462 q=-0.0 size=N/A time=00:01:59.11 bitrate=N/A speed=19.3x    frame= 3089 fps=462 q=-0.0 size=N/A time=00:02:08.83 bitrate=N/A speed=19.3x    frame= 3248 fps=450 q=-0.0 size=N/A time=00:02:15.46 bitrate=N/A speed=18.8x    frame= 3478 fps=450 q=-0.0 size=N/A time=00:02:25.06 bitrate=N/A speed=18.8x    frame= 3691 fps=448 q=-0.0 size=N/A time=00:02:33.94 bitrate=N/A speed=18.7x    frame= 3939 fps=449 q=-0.0 size=N/A time=00:02:44.28 bitrate=N/A speed=18.7x    frame= 4199 fps=453 q=-0.0 size=N/A time=00:02:55.13 bitrate=N/A speed=18.9x    frame= 4454 fps=455 q=-0.0 size=N/A time=00:03:05.76 bitrate=N/A speed=  19x    frame= 4656 fps=451 q=-0.0 size=N/A time=00:03:14.19 bitrate=N/A speed=18.8x    frame= 4878 fps=450 q=-0.0 size=N/A time=00:03:23.45 bitrate=N/A speed=18.8x    frame= 5083 fps=447 q=-0.0 size=N/A time=00:03:32.00 bitrate=N/A speed=18.7x    frame= 5271 fps=443 q=-0.0 size=N/A time=00:03:39.84 bitrate=N/A speed=18.5x    frame= 5436 fps=439 q=-0.0 size=N/A time=00:03:46.72 bitrate=N/A speed=18.3x    frame= 5608 fps=434 q=-0.0 size=N/A time=00:03:53.90 bitrate=N/A speed=18.1x    frame= 5769 fps=430 q=-0.0 size=N/A time=00:04:00.61 bitrate=N/A speed=17.9x    frame= 5959 fps=427 q=-0.0 size=N/A time=00:04:08.53 bitrate=N/A speed=17.8x    frame= 6166 fps=426 q=-0.0 size=N/A time=00:04:17.17 bitrate=N/A speed=17.8x    frame= 6358 fps=424 q=-0.0 size=N/A time=00:04:25.18 bitrate=N/A speed=17.7x    frame= 6556 fps=422 q=-0.0 size=N/A time=00:04:33.43 bitrate=N/A speed=17.6x    frame= 6816 fps=425 q=-0.0 size=N/A time=00:04:44.28 bitrate=N/A speed=17.7x    frame= 7066 fps=427 q=-0.0 size=N/A time=00:04:54.71 bitrate=N/A speed=17.8x    frame= 7320 fps=429 q=-0.0 size=N/A time=00:05:05.30 bitrate=N/A speed=17.9x    frame= 7570 fps=430 q=-0.0 size=N/A time=00:05:15.73 bitrate=N/A speed=17.9x    frame= 7839 fps=433 q=-0.0 size=N/A time=00:05:26.95 bitrate=N/A speed=18.1x    frame= 8117 fps=436 q=-0.0 size=N/A time=00:05:38.54 bitrate=N/A speed=18.2x    frame= 8337 fps=436 q=-0.0 size=N/A time=00:05:47.72 bitrate=N/A speed=18.2x    frame= 8596 fps=438 q=-0.0 size=N/A time=00:05:58.52 bitrate=N/A speed=18.2x    frame= 8867 fps=440 q=-0.0 size=N/A time=00:06:09.82 bitrate=N/A speed=18.3x    frame= 9127 fps=441 q=-0.0 size=N/A time=00:06:20.67 bitrate=N/A speed=18.4x    frame= 9376 fps=442 q=-0.0 size=N/A time=00:06:31.05 bitrate=N/A speed=18.4x    frame= 9644 fps=444 q=-0.0 size=N/A time=00:06:42.23 bitrate=N/A speed=18.5x    frame= 9915 fps=446 q=-0.0 size=N/A time=00:06:53.53 bitrate=N/A speed=18.6x    frame=10194 fps=448 q=-0.0 size=N/A time=00:07:05.17 bitrate=N/A speed=18.7x    frame=10436 fps=449 q=-0.0 size=N/A time=00:07:15.26 bitrate=N/A speed=18.7x    frame=10695 fps=450 q=-0.0 size=N/A time=00:07:26.07 bitrate=N/A speed=18.8x    frame=10893 fps=448 q=-0.0 size=N/A time=00:07:34.32 bitrate=N/A speed=18.7x    frame=11137 fps=449 q=-0.0 size=N/A time=00:07:44.50 bitrate=N/A speed=18.7x    frame=11383 fps=449 q=-0.0 size=N/A time=00:07:54.76 bitrate=N/A speed=18.7x    frame=11630 fps=450 q=-0.0 size=N/A time=00:08:05.06 bitrate=N/A speed=18.8x    frame=11891 fps=451 q=-0.0 size=N/A time=00:08:15.95 bitrate=N/A speed=18.8x    frame=12142 fps=452 q=-0.0 size=N/A time=00:08:26.42 bitrate=N/A speed=18.8x    frame=12400 fps=453 q=-0.0 size=N/A time=00:08:37.18 bitrate=N/A speed=18.9x    frame=12671 fps=454 q=-0.0 size=N/A time=00:08:48.48 bitrate=N/A speed=18.9x    frame=12915 fps=455 q=-0.0 size=N/A time=00:08:58.66 bitrate=N/A speed=  19x    frame=13184 fps=456 q=-0.0 size=N/A time=00:09:09.88 bitrate=N/A speed=  19x    frame=13444 fps=457 q=-0.0 size=N/A time=00:09:20.72 bitrate=N/A speed=  19x    frame=13692 fps=457 q=-0.0 size=N/A time=00:09:31.07 bitrate=N/A speed=19.1x    frame=13914 fps=457 q=-0.0 size=N/A time=00:09:40.32 bitrate=N/A speed=  19x    frame=14167 fps=457 q=-0.0 size=N/A time=00:09:50.88 bitrate=N/A speed=19.1x    frame=14417 fps=457 q=-0.0 size=N/A time=00:10:01.30 bitrate=N/A speed=19.1x    frame=14680 fps=458 q=-0.0 size=N/A time=00:10:12.27 bitrate=N/A speed=19.1x    frame=14944 fps=459 q=-0.0 size=N/A time=00:10:23.28 bitrate=N/A speed=19.2x    frame=15185 fps=459 q=-0.0 size=N/A time=00:10:33.34 bitrate=N/A speed=19.2x    frame=15463 fps=460 q=-0.0 size=N/A time=00:10:44.93 bitrate=N/A speed=19.2x    frame=15705 fps=461 q=-0.0 size=N/A time=00:10:55.02 bitrate=N/A speed=19.2x    frame=15944 fps=461 q=-0.0 size=N/A time=00:11:04.99 bitrate=N/A speed=19.2x    frame=16198 fps=461 q=-0.0 size=N/A time=00:11:15.59 bitrate=N/A speed=19.2x    frame=16423 fps=461 q=-0.0 size=N/A time=00:11:24.97 bitrate=N/A speed=19.2x    frame=16648 fps=461 q=-0.0 size=N/A time=00:11:34.36 bitrate=N/A speed=19.2x    frame=16824 fps=459 q=-0.0 size=N/A time=00:11:41.70 bitrate=N/A speed=19.1x    frame=17010 fps=458 q=-0.0 size=N/A time=00:11:49.45 bitrate=N/A speed=19.1x    frame=17221 fps=457 q=-0.0 size=N/A time=00:11:58.25 bitrate=N/A speed=19.1x    frame=17380 fps=455 q=-0.0 size=N/A time=00:12:04.89 bitrate=N/A speed=  19x    frame=17545 fps=453 q=-0.0 size=N/A time=00:12:11.77 bitrate=N/A speed=18.9x    frame=17772 fps=453 q=-0.0 size=N/A time=00:12:21.24 bitrate=N/A speed=18.9x    frame=18034 fps=454 q=-0.0 size=N/A time=00:12:32.16 bitrate=N/A speed=18.9x    frame=18303 fps=454 q=-0.0 size=N/A time=00:12:43.38 bitrate=N/A speed=  19x    frame=18522 fps=454 q=-0.0 size=N/A time=00:12:52.52 bitrate=N/A speed=18.9x    frame=18785 fps=455 q=-0.0 size=N/A time=00:13:03.49 bitrate=N/A speed=  19x    frame=19041 fps=455 q=-0.0 size=N/A time=00:13:14.16 bitrate=N/A speed=  19x    frame=19286 fps=455 q=-0.0 size=N/A time=00:13:24.38 bitrate=N/A speed=  19x    frame=19536 fps=456 q=-0.0 size=N/A time=00:13:34.81 bitrate=N/A speed=  19x    frame=19809 fps=457 q=-0.0 size=N/A time=00:13:46.20 bitrate=N/A speed=  19x    frame=20056 fps=457 q=-0.0 size=N/A time=00:13:56.50 bitrate=N/A speed=19.1x    frame=20308 fps=457 q=-0.0 size=N/A time=00:14:07.01 bitrate=N/A speed=19.1x    frame=20536 fps=457 q=-0.0 size=N/A time=00:14:16.52 bitrate=N/A speed=19.1x    frame=20783 fps=457 q=-0.0 size=N/A time=00:14:26.82 bitrate=N/A speed=19.1x    frame=21000 fps=457 q=-0.0 size=N/A time=00:14:35.87 bitrate=N/A speed=19.1x    frame=21253 fps=457 q=-0.0 size=N/A time=00:14:46.42 bitrate=N/A speed=19.1x    frame=21509 fps=458 q=-0.0 size=N/A time=00:14:57.10 bitrate=N/A speed=19.1x    frame=21769 fps=458 q=-0.0 size=N/A time=00:15:07.94 bitrate=N/A speed=19.1x    frame=22025 fps=459 q=-0.0 size=N/A time=00:15:18.66 bitrate=N/A speed=19.1x    frame=22266 fps=459 q=-0.0 size=N/A time=00:15:28.67 bitrate=N/A speed=19.1x    frame=22527 fps=459 q=-0.0 size=N/A time=00:15:39.56 bitrate=N/A speed=19.1x    frame=22772 fps=459 q=-0.0 size=N/A time=00:15:49.78 bitrate=N/A speed=19.2x    frame=22961 fps=458 q=-0.0 size=N/A time=00:15:57.66 bitrate=N/A speed=19.1x    frame=23107 fps=457 q=-0.0 size=N/A time=00:16:03.75 bitrate=N/A speed=  19x    frame=23326 fps=456 q=-0.0 size=N/A time=00:16:12.88 bitrate=N/A speed=  19x    frame=23574 fps=456 q=-0.0 size=N/A time=00:16:23.23 bitrate=N/A speed=  19x    frame=23806 fps=457 q=-0.0 size=N/A time=00:16:32.90 bitrate=N/A speed=  19x    frame=24069 fps=457 q=-0.0 size=N/A time=00:16:43.87 bitrate=N/A speed=19.1x    frame=24303 fps=457 q=-0.0 size=N/A time=00:16:53.63 bitrate=N/A speed=19.1x    frame=24562 fps=457 q=-0.0 size=N/A time=00:17:04.44 bitrate=N/A speed=19.1x    frame=24803 fps=458 q=-0.0 size=N/A time=00:17:14.49 bitrate=N/A speed=19.1x    frame=25062 fps=458 q=-0.0 size=N/A time=00:17:25.29 bitrate=N/A speed=19.1x    frame=25258 fps=457 q=-0.0 size=N/A time=00:17:33.46 bitrate=N/A speed=19.1x    frame=25512 fps=458 q=-0.0 size=N/A time=00:17:44.06 bitrate=N/A speed=19.1x    frame=25785 fps=458 q=-0.0 size=N/A time=00:17:55.44 bitrate=N/A speed=19.1x    frame=26047 fps=459 q=-0.0 size=N/A time=00:18:06.37 bitrate=N/A speed=19.1x    frame=26290 fps=459 q=-0.0 size=N/A time=00:18:16.51 bitrate=N/A speed=19.1x    frame=26526 fps=459 q=-0.0 size=N/A time=00:18:26.35 bitrate=N/A speed=19.1x    frame=26794 fps=459 q=-0.0 size=N/A time=00:18:37.53 bitrate=N/A speed=19.2x    frame=27075 fps=460 q=-0.0 size=N/A time=00:18:49.25 bitrate=N/A speed=19.2x    frame=27315 fps=460 q=-0.0 size=N/A time=00:18:59.26 bitrate=N/A speed=19.2x    frame=27548 fps=460 q=-0.0 size=N/A time=00:19:08.98 bitrate=N/A speed=19.2x    frame=27793 fps=460 q=-0.0 size=N/A time=00:19:19.19 bitrate=N/A speed=19.2x    frame=28038 fps=460 q=-0.0 size=N/A time=00:19:29.41 bitrate=N/A speed=19.2x    frame=28311 fps=461 q=-0.0 size=N/A time=00:19:40.80 bitrate=N/A speed=19.2x    frame=28546 fps=461 q=-0.0 size=N/A time=00:19:50.60 bitrate=N/A speed=19.2x    frame=28808 fps=461 q=-0.0 size=N/A time=00:20:01.53 bitrate=N/A speed=19.2x    frame=29076 fps=462 q=-0.0 size=N/A time=00:20:12.71 bitrate=N/A speed=19.3x    frame=29341 fps=462 q=-0.0 size=N/A time=00:20:23.76 bitrate=N/A speed=19.3x    frame=29616 fps=463 q=-0.0 size=N/A time=00:20:35.23 bitrate=N/A speed=19.3x    frame=29857 fps=463 q=-0.0 size=N/A time=00:20:45.28 bitrate=N/A speed=19.3x    frame=30094 fps=463 q=-0.0 size=N/A time=00:20:55.17 bitrate=N/A speed=19.3x    frame=30313 fps=462 q=-0.0 size=N/A time=00:21:04.30 bitrate=N/A speed=19.3x    frame=30546 fps=462 q=-0.0 size=N/A time=00:21:14.02 bitrate=N/A speed=19.3x    frame=30763 fps=462 q=-0.0 size=N/A time=00:21:23.07 bitrate=N/A speed=19.3x    frame=31024 fps=462 q=-0.0 size=N/A time=00:21:33.95 bitrate=N/A speed=19.3x    frame=31298 fps=463 q=-0.0 size=N/A time=00:21:45.38 bitrate=N/A speed=19.3x    frame=31556 fps=463 q=-0.0 size=N/A time=00:21:56.14 bitrate=N/A speed=19.3x    frame=31826 fps=464 q=-0.0 size=N/A time=00:22:07.40 bitrate=N/A speed=19.3x    frame=32065 fps=464 q=-0.0 size=N/A time=00:22:17.37 bitrate=N/A speed=19.3x    frame=32286 fps=463 q=-0.0 size=N/A time=00:22:26.59 bitrate=N/A speed=19.3x    frame=32520 fps=463 q=-0.0 size=N/A time=00:22:36.35 bitrate=N/A speed=19.3x    frame=32757 fps=463 q=-0.0 size=N/A time=00:22:46.23 bitrate=N/A speed=19.3x    frame=32977 fps=463 q=-0.0 size=N/A time=00:22:55.41 bitrate=N/A speed=19.3x    frame=33216 fps=463 q=-0.0 size=N/A time=00:23:05.38 bitrate=N/A speed=19.3x    frame=33401 fps=462 q=-0.0 size=N/A time=00:23:13.10 bitrate=N/A speed=19.3x    frame=33574 fps=461 q=-0.0 size=N/A time=00:23:20.31 bitrate=N/A speed=19.2x    frame=33755 fps=461 q=-0.0 size=N/A time=00:23:27.86 bitrate=N/A speed=19.2x    frame=33959 fps=460 q=-0.0 size=N/A time=00:23:36.37 bitrate=N/A speed=19.2x    frame=34130 fps=459 q=-0.0 size=N/A time=00:23:43.50 bitrate=N/A speed=19.2x    frame=34336 fps=459 q=-0.0 size=N/A time=00:23:52.09 bitrate=N/A speed=19.1x    [Parsed_psnr_10 @ 0000024537e03240] PSNR y:47.644441 u:49.612062 v:49.574939 average:48.202235 min:38.886500 max:inf
[out#0/null @ 000002452a9feec0] video:14769KiB audio:268812KiB subtitle:0KiB other streams:0KiB global headers:0KiB muxing overhead: unknown
frame=34371 fps=459 q=-0.0 Lsize=N/A time=00:23:53.55 bitrate=N/A speed=19.1x    
